<?xml version="1.0" encoding="UTF-8" standalone="no"?>
<svg
   xmlns:dc="http://purl.org/dc/elements/1.1/"
   xmlns:cc="http://creativecommons.org/ns#"
   xmlns:rdf="http://www.w3.org/1999/02/22-rdf-syntax-ns#"
   xmlns:svg="http://www.w3.org/2000/svg"
   xmlns="http://www.w3.org/2000/svg"
   xmlns:sodipodi="http://sodipodi.sourceforge.net/DTD/sodipodi-0.dtd"
   xmlns:inkscape="http://www.inkscape.org/namespaces/inkscape"
   width="175px"
   height="36px"
   viewBox="0 0 175 36"
   version="1.1"
   id="svg8"
   inkscape:version="1.0.1 (0767f8302a, 2020-10-17)"
   sodipodi:docname="logo.svg">
  <defs
     id="defs2">
    <rect
       x="170.15648"
       y="-20.23921"
       width="62.65472"
       height="72.364838"
       id="rect126" />
  </defs>
  <sodipodi:namedview
     id="base"
     pagecolor="#ffffff"
     bordercolor="#666666"
     borderopacity="1.0"
     inkscape:pageopacity="0.0"
     inkscape:pageshadow="2"
     inkscape:zoom="0.98994949"
     inkscape:cx="438.2702"
     inkscape:cy="289.92734"
     inkscape:document-units="mm"
     inkscape:current-layer="layer1"
     inkscape:document-rotation="0"
     showgrid="false"
     inkscape:pagecheckerboard="true"
     inkscape:window-width="277"
     inkscape:window-height="36"
     inkscape:window-x="0"
     inkscape:window-y="27"
     inkscape:window-maximized="1" />
  <metadata
     id="metadata5">
    <rdf:RDF>
      <cc:Work
         rdf:about="">
        <dc:format>image/svg+xml</dc:format>
        <dc:type
           rdf:resource="http://purl.org/dc/dcmitype/StillImage" />
        <dc:title></dc:title>
      </cc:Work>
    </rdf:RDF>
  </metadata>
  <g
     inkscape:label="Layer 1"
     inkscape:groupmode="layer"
     id="layer1">
    <g
       id="g141"
       transform="translate(-3.4048208,-0.00537239)">
      <g
         id="g122"
         transform="translate(-52.911231,-1.1237287)">
        <path
           style="fill:#ffffff;stroke-width:0.217607"
           d="m 193.39697,24.033571 c -0.13595,-0.164906 -0.18625,-0.459659 -0.11179,-0.655005 0.1166,-0.305888 0.58111,-0.355177 3.34732,-0.355177 3.34481,0 3.64143,0.08571 3.21115,0.927924 -0.17168,0.336026 -0.55712,0.382086 -3.19735,0.382086 -2.28084,0 -3.06154,-0.07204 -3.24933,-0.299828 z"
           id="path112" />
        <path
           style="fill:#ffffff;stroke-width:0.217607"
           d="m 190.63314,24.005901 c -0.19034,-0.49933 0.0763,-0.982508 0.5422,-0.982508 0.51297,0 0.77634,0.603354 0.44096,1.010182 -0.3263,0.395804 -0.82712,0.381706 -0.98316,-0.02767 z"
           id="path110" />
        <path
           style="fill:#ffffff;stroke-width:0.217607"
           d="m 195.67071,27.269169 c -0.42296,-0.425797 -0.42295,-0.424037 -0.004,-0.845987 0.48583,-0.489086 10.19105,-0.514496 10.84132,-0.02838 0.337,0.251925 0.37303,0.393496 0.18062,0.709588 -0.21947,0.360539 -0.69395,0.399955 -5.45694,0.453297 -4.52898,0.05072 -5.26199,0.01269 -5.56119,-0.288515 z"
           id="path108" />
        <path
           style="fill:#ffffff;stroke-width:0.217607"
           d="m 198.88544,11.538682 c -0.0105,-0.468171 -0.0938,-1.6309285 -0.18494,-2.5839057 l -0.16577,-1.7326861 -0.95124,1.514351 c -0.52319,0.832893 -0.94837,1.7108528 -0.94484,1.9510208 0.007,0.454854 1.65983,1.879433 2.04909,1.765769 0.11928,-0.03483 0.20825,-0.446378 0.1977,-0.914549 z"
           id="path106" />
        <path
           style="fill:#ffffff;stroke-width:0.217607"
           d="m 219.57428,19.475448 c -0.17007,-0.270189 -0.52722,-0.853794 -0.79366,-1.296901 -0.36573,-0.608218 -0.64945,-0.822235 -1.15779,-0.87334 -0.90111,-0.09059 -1.30817,-0.739831 -0.73332,-1.169614 0.36751,-0.274765 0.38333,-0.376529 0.13204,-0.84921 -0.20788,-0.391045 -0.49778,-0.554959 -1.06638,-0.602963 -0.89583,-0.07563 -1.19841,-0.720253 -0.55901,-1.19093 0.31406,-0.231184 0.33261,-0.339331 0.10547,-0.614853 -0.15159,-0.18388 -0.53694,-0.334327 -0.85633,-0.334327 -1.00754,0 -1.4698,-0.881385 -0.7429,-1.416471 0.84728,-0.623703 -1.32319,-1.6203565 -2.24459,-1.030686 -0.18184,0.11637 0.41806,1.339478 2.0015,4.080796 1.24364,2.153041 2.48284,4.137704 2.75379,4.410365 0.45319,0.456056 2.47846,1.325936 3.17437,1.363435 0.24588,0.01325 0.24364,-0.06729 -0.0132,-0.475301 z"
           id="path104" />
        <path
           style="fill:#ffffff;stroke-width:0.217607"
           d="m 226.55693,29.010424 1.19285,-0.419487 -5.0967,-0.109168 c -4.66189,-0.09985 -5.16147,-0.147889 -5.85579,-0.563046 -0.41749,-0.249636 -4.02856,-2.895859 -8.02459,-5.880501 -12.14512,-9.071211 -13.01786,-9.697606 -13.33871,-9.573659 -0.42872,0.165617 -1.43243,1.948916 -1.2946,2.300125 0.0625,0.159212 1.5994,1.217866 3.41538,2.352565 1.81598,1.1347 6.62006,4.223089 10.67573,6.86309 4.05567,2.639998 7.81313,4.978626 8.34991,5.196952 1.40984,0.573429 8.1941,0.459954 9.97652,-0.166871 z"
           id="path102" />
        <path
           style="fill:#ffffff;stroke-width:0.217607"
           d="m 216.57901,30.68925 c -1.19301,-0.386826 -0.72492,-0.09252 -19.62632,-12.339596 -3.55364,-2.302563 -4.23021,-2.910602 -4.22714,-3.79892 0.003,-0.762398 1.15002,-2.77226 1.8439,-3.229958 0.29686,-0.195818 0.53975,-0.556696 0.53975,-0.801952 0,-0.498098 3.92196,-6.8205367 4.60187,-7.4185049 0.24912,-0.2190946 0.7835,-0.3820863 1.25271,-0.3820863 0.96016,0 1.65384,0.6727743 3.43774,3.3341186 1.30398,1.9453815 2.33264,2.8553044 3.64652,3.2256369 0.85606,0.241288 0.95693,0.3356445 0.8987,0.8406347 -0.0576,0.49911 -0.15372,0.561813 -0.78444,0.511517 -1.70555,-0.136007 -3.25621,-1.359589 -5.03334,-3.9716542 -1.9752,-2.9032063 -2.42137,-3.1557758 -3.13175,-1.7728311 -0.30937,0.6022648 -0.30696,0.9769937 0.0269,4.1819861 0.29743,2.8549532 0.31516,3.6036242 0.0938,3.9604682 -0.15013,0.242013 -0.19176,0.51584 -0.0925,0.608503 1.04025,0.971152 17.50533,13.032634 18.07314,13.239469 0.53079,0.193351 2.33958,0.279395 6.01431,0.286095 l 5.25523,0.0096 0.13178,-0.528569 c 0.23908,-0.958987 0.0227,-1.299046 -1.10127,-1.730926 -0.59544,-0.228787 -3.65027,-1.376024 -6.78853,-2.549413 -3.13824,-1.173389 -5.89303,-2.303913 -6.12173,-2.512275 -0.2287,-0.208363 -1.60263,-2.434946 -3.05316,-4.947963 -2.38442,-4.130956 -2.61206,-4.616653 -2.37384,-5.0647579 0.63744,-1.1990632 2.74066,-1.6118734 4.06635,-0.7981262 0.38064,0.2336495 0.91702,0.8182964 1.19196,1.2992151 0.41376,0.723744 0.63052,0.885523 1.25805,0.938961 0.84982,0.07237 1.17251,0.721226 0.57678,1.159757 -0.51823,0.381482 0.10276,1.15096 0.99933,1.238286 0.79515,0.07745 1.07399,0.700742 0.50189,1.121879 -0.31777,0.233917 -0.31837,0.299822 -0.007,0.747687 0.22116,0.31786 0.56427,0.491157 0.97244,0.491157 0.38173,0 0.70778,0.150835 0.82592,0.382087 0.24481,0.479173 0.0966,0.927924 -0.30645,0.927924 -0.16899,0 -0.30725,0.04812 -0.30725,0.106934 0,0.238127 1.91863,3.083539 2.3005,3.411742 0.22578,0.19405 2.06965,0.979273 4.09748,1.744936 2.02784,0.765664 3.90657,1.609501 4.17496,1.875193 1.12114,1.109862 0.30207,3.574341 -1.61216,4.850776 -1.80744,1.205223 -2.7694,1.394613 -7.44262,1.465288 -2.32604,0.03518 -4.4738,-0.01535 -4.77278,-0.112301 z"
           id="path100" />
        <path
           style="fill:#ffffff;stroke-width:0.217607"
           d="m 201.87589,30.62145 c -0.38003,-0.38258 -0.31877,-0.782784 0.15924,-1.040327 0.24368,-0.131285 2.02226,-0.226016 4.24344,-0.226016 2.22118,0 3.99976,0.09473 4.24343,0.226016 0.5061,0.27267 0.5527,0.985822 0.0764,1.169802 -0.67942,0.262465 -8.44778,0.147156 -8.72256,-0.129475 z"
           id="path96" />
      </g>
      <text
         xml:space="preserve"
         style="font-style:normal;font-weight:normal;font-size:10.5833px;line-height:1.25;font-family:sans-serif;white-space:pre;inline-size:51.6263;fill:#000000;fill-opacity:1;stroke:none;stroke-width:0.264583"
         x="9.5025501"
         y="9.3678837"
         id="text94"
         transform="matrix(2.6051326,0,0,3.1426866,-22.32673,-0.69161853)"><tspan
           x="9.5025501"
           y="9.3678837"><tspan
             style="font-style:normal;font-variant:normal;font-weight:bold;font-stretch:normal;font-family:Ubuntu;-inkscape-font-specification:'Ubuntu Bold';fill:#ffffff;stroke-width:0.264583">d1pShoes</tspan></tspan></text>
    </g>
    <text
       xml:space="preserve"
       id="text124"
       style="font-style:normal;font-weight:normal;font-size:10.5833px;line-height:1.25;font-family:sans-serif;white-space:pre;shape-inside:url(#rect126);fill:#000000;fill-opacity:1;stroke:none;" />
  </g>
</svg>
